<svg width="48" height="48" viewBox="0 0 48 48" fill="none" xmlns="http://www.w3.org/2000/svg">
<path d="M24 44C35.0457 44 44 35.0457 44 24C44 12.9543 35.0457 4 24 4C12.9543 4 4 12.9543 4 24C4 35.0457 12.9543 44 24 44Z" stroke="#1E1E1E" stroke-width="4" stroke-linecap="round" stroke-linejoin="round"/>
<path d="M16.16 17.524C16.328 15.316 17.18 13.588 18.716 12.34C20.252 11.092 22.244 10.468 24.692 10.468C26.324 10.468 27.728 10.768 28.904 11.368C30.104 11.944 31.004 12.736 31.604 13.744C32.228 14.752 32.54 15.892 32.54 17.164C32.54 18.652 32.108 19.936 31.244 21.016C30.404 22.096 29.3 22.792 27.932 23.104V23.284C29.492 23.668 30.728 24.424 31.64 25.552C32.552 26.68 33.008 28.156 33.008 29.98C33.008 31.348 32.696 32.584 32.072 33.688C31.448 34.768 30.512 35.62 29.264 36.244C28.016 36.868 26.516 37.18 24.764 37.18C22.22 37.18 20.132 36.52 18.5 35.2C16.868 33.856 15.956 31.96 15.764 29.512H18.932C19.1 30.952 19.688 32.128 20.696 33.04C21.704 33.952 23.048 34.408 24.728 34.408C26.408 34.408 27.68 33.976 28.544 33.112C29.432 32.224 29.876 31.084 29.876 29.692C29.876 27.892 29.276 26.596 28.076 25.804C26.876 25.012 25.064 24.616 22.64 24.616H21.812V21.88H22.676C24.884 21.856 26.552 21.496 27.68 20.8C28.808 20.08 29.372 18.976 29.372 17.488C29.372 16.216 28.952 15.196 28.112 14.428C27.296 13.66 26.12 13.276 24.584 13.276C23.096 13.276 21.896 13.66 20.984 14.428C20.072 15.196 19.532 16.228 19.364 17.524H16.16Z" fill="black"/>
</svg>
